<mxfile host="Electron" modified="2024-07-02T13:45:11.677Z" agent="Mozilla/5.0 (X11; Linux x86_64) AppleWebKit/537.36 (KHTML, like Gecko) draw.io/24.6.4 Chrome/124.0.6367.207 Electron/30.0.6 Safari/537.36" etag="waJWmc9c3xTae86xiGXq" version="24.6.4" type="device">
  <diagram name="Page-1" id="LJLwPb-1Crc-9ui6nI8u">
    <mxGraphModel dx="814" dy="462" grid="1" gridSize="10" guides="1" tooltips="1" connect="1" arrows="1" fold="1" page="1" pageScale="1" pageWidth="850" pageHeight="1100" math="0" shadow="0">
      <root>
        <mxCell id="0" />
        <mxCell id="1" parent="0" />
        <mxCell id="0kSFPCfAwh8iFB105jdD-1" value="" style="pointerEvents=1;verticalLabelPosition=bottom;shadow=0;dashed=0;align=center;html=1;verticalAlign=top;shape=mxgraph.electrical.inductors.transformer_1;direction=south;" vertex="1" parent="1">
          <mxGeometry x="930" y="440" width="60" height="80" as="geometry" />
        </mxCell>
        <mxCell id="0kSFPCfAwh8iFB105jdD-4" value="" style="pointerEvents=1;verticalLabelPosition=bottom;shadow=0;dashed=0;align=center;html=1;verticalAlign=top;shape=mxgraph.electrical.inductors.inductor_3;direction=east;" vertex="1" parent="1">
          <mxGeometry x="690" y="430" width="120" height="10" as="geometry" />
        </mxCell>
        <mxCell id="0kSFPCfAwh8iFB105jdD-5" value="" style="pointerEvents=1;verticalLabelPosition=bottom;shadow=0;dashed=0;align=center;html=1;verticalAlign=top;shape=mxgraph.electrical.capacitors.capacitor_1;direction=south;" vertex="1" parent="1">
          <mxGeometry x="830" y="440" width="60" height="80" as="geometry" />
        </mxCell>
        <mxCell id="0kSFPCfAwh8iFB105jdD-9" value="" style="group" vertex="1" connectable="0" parent="1">
          <mxGeometry x="570" y="430" width="100" height="100" as="geometry" />
        </mxCell>
        <mxCell id="0kSFPCfAwh8iFB105jdD-6" value="" style="verticalLabelPosition=bottom;verticalAlign=top;html=1;shape=mxgraph.basic.rect;fillColor2=none;strokeWidth=1;size=20;indent=5;" vertex="1" parent="0kSFPCfAwh8iFB105jdD-9">
          <mxGeometry width="100" height="100" as="geometry" />
        </mxCell>
        <mxCell id="0kSFPCfAwh8iFB105jdD-8" value="" style="endArrow=none;html=1;rounded=0;" edge="1" parent="0kSFPCfAwh8iFB105jdD-9">
          <mxGeometry width="50" height="50" relative="1" as="geometry">
            <mxPoint y="100" as="sourcePoint" />
            <mxPoint x="100" as="targetPoint" />
          </mxGeometry>
        </mxCell>
        <mxCell id="0kSFPCfAwh8iFB105jdD-29" value="&lt;font style=&quot;font-size: 24px;&quot;&gt;DC&lt;/font&gt;" style="text;html=1;align=center;verticalAlign=middle;whiteSpace=wrap;rounded=0;" vertex="1" parent="0kSFPCfAwh8iFB105jdD-9">
          <mxGeometry y="10" width="60" height="30" as="geometry" />
        </mxCell>
        <mxCell id="0kSFPCfAwh8iFB105jdD-30" value="&lt;font style=&quot;font-size: 24px;&quot;&gt;AC&lt;/font&gt;" style="text;html=1;align=center;verticalAlign=middle;whiteSpace=wrap;rounded=0;" vertex="1" parent="0kSFPCfAwh8iFB105jdD-9">
          <mxGeometry x="40" y="60" width="60" height="30" as="geometry" />
        </mxCell>
        <mxCell id="0kSFPCfAwh8iFB105jdD-11" value="" style="endArrow=none;html=1;rounded=0;exitX=1;exitY=1;exitDx=0;exitDy=0;exitPerimeter=0;" edge="1" parent="1" source="0kSFPCfAwh8iFB105jdD-4">
          <mxGeometry width="50" height="50" relative="1" as="geometry">
            <mxPoint x="820" y="440" as="sourcePoint" />
            <mxPoint x="900" y="440" as="targetPoint" />
          </mxGeometry>
        </mxCell>
        <mxCell id="0kSFPCfAwh8iFB105jdD-12" value="" style="endArrow=none;html=1;rounded=0;" edge="1" parent="1">
          <mxGeometry width="50" height="50" relative="1" as="geometry">
            <mxPoint x="850" y="440" as="sourcePoint" />
            <mxPoint x="930" y="440" as="targetPoint" />
          </mxGeometry>
        </mxCell>
        <mxCell id="0kSFPCfAwh8iFB105jdD-13" value="" style="endArrow=none;html=1;rounded=0;" edge="1" parent="1">
          <mxGeometry width="50" height="50" relative="1" as="geometry">
            <mxPoint x="670" y="440" as="sourcePoint" />
            <mxPoint x="710" y="440" as="targetPoint" />
          </mxGeometry>
        </mxCell>
        <mxCell id="0kSFPCfAwh8iFB105jdD-14" value="" style="endArrow=none;html=1;rounded=0;" edge="1" parent="1">
          <mxGeometry width="50" height="50" relative="1" as="geometry">
            <mxPoint x="670" y="520" as="sourcePoint" />
            <mxPoint x="930" y="520" as="targetPoint" />
          </mxGeometry>
        </mxCell>
        <mxCell id="0kSFPCfAwh8iFB105jdD-15" value="" style="pointerEvents=1;verticalLabelPosition=bottom;shadow=0;dashed=0;align=center;html=1;verticalAlign=top;shape=mxgraph.electrical.resistors.resistor_1;direction=south;" vertex="1" parent="1">
          <mxGeometry x="1030" y="440" width="20" height="80" as="geometry" />
        </mxCell>
        <mxCell id="0kSFPCfAwh8iFB105jdD-16" value="" style="endArrow=none;html=1;rounded=0;" edge="1" parent="1">
          <mxGeometry width="50" height="50" relative="1" as="geometry">
            <mxPoint x="990" y="440" as="sourcePoint" />
            <mxPoint x="1040" y="440" as="targetPoint" />
          </mxGeometry>
        </mxCell>
        <mxCell id="0kSFPCfAwh8iFB105jdD-17" value="" style="endArrow=none;html=1;rounded=0;" edge="1" parent="1">
          <mxGeometry width="50" height="50" relative="1" as="geometry">
            <mxPoint x="990" y="520" as="sourcePoint" />
            <mxPoint x="1040" y="520" as="targetPoint" />
          </mxGeometry>
        </mxCell>
        <mxCell id="0kSFPCfAwh8iFB105jdD-19" value="" style="pointerEvents=1;verticalLabelPosition=bottom;shadow=0;dashed=0;align=center;html=1;verticalAlign=top;shape=mxgraph.electrical.capacitors.capacitor_1;direction=south;" vertex="1" parent="1">
          <mxGeometry x="410" y="440" width="60" height="80" as="geometry" />
        </mxCell>
        <mxCell id="0kSFPCfAwh8iFB105jdD-20" value="" style="pointerEvents=1;verticalLabelPosition=bottom;shadow=0;dashed=0;align=center;html=1;verticalAlign=top;shape=mxgraph.electrical.resistors.resistor_1;direction=south;" vertex="1" parent="1">
          <mxGeometry x="510" y="440" width="20" height="80" as="geometry" />
        </mxCell>
        <mxCell id="0kSFPCfAwh8iFB105jdD-22" value="" style="endArrow=none;html=1;rounded=0;" edge="1" parent="1">
          <mxGeometry width="50" height="50" relative="1" as="geometry">
            <mxPoint x="350" y="439.99" as="sourcePoint" />
            <mxPoint x="570" y="439.99" as="targetPoint" />
          </mxGeometry>
        </mxCell>
        <mxCell id="0kSFPCfAwh8iFB105jdD-23" value="" style="endArrow=none;html=1;rounded=0;" edge="1" parent="1">
          <mxGeometry width="50" height="50" relative="1" as="geometry">
            <mxPoint x="350" y="520" as="sourcePoint" />
            <mxPoint x="570" y="520" as="targetPoint" />
          </mxGeometry>
        </mxCell>
        <mxCell id="0kSFPCfAwh8iFB105jdD-24" value="" style="endArrow=none;html=1;rounded=0;" edge="1" parent="1">
          <mxGeometry width="50" height="50" relative="1" as="geometry">
            <mxPoint x="349.89" y="450" as="sourcePoint" />
            <mxPoint x="349.89" y="440" as="targetPoint" />
          </mxGeometry>
        </mxCell>
        <mxCell id="0kSFPCfAwh8iFB105jdD-25" value="" style="endArrow=none;html=1;rounded=0;" edge="1" parent="1">
          <mxGeometry width="50" height="50" relative="1" as="geometry">
            <mxPoint x="349.89" y="520" as="sourcePoint" />
            <mxPoint x="349.89" y="510" as="targetPoint" />
          </mxGeometry>
        </mxCell>
        <mxCell id="0kSFPCfAwh8iFB105jdD-28" value="" style="group" vertex="1" connectable="0" parent="1">
          <mxGeometry x="330" y="450" width="50" height="60" as="geometry" />
        </mxCell>
        <mxCell id="0kSFPCfAwh8iFB105jdD-21" value="" style="rounded=0;whiteSpace=wrap;html=1;direction=south;" vertex="1" parent="0kSFPCfAwh8iFB105jdD-28">
          <mxGeometry width="40" height="60" as="geometry" />
        </mxCell>
        <mxCell id="0kSFPCfAwh8iFB105jdD-26" value="" style="endArrow=none;html=1;rounded=0;" edge="1" parent="0kSFPCfAwh8iFB105jdD-28">
          <mxGeometry width="50" height="50" relative="1" as="geometry">
            <mxPoint x="20" y="20" as="sourcePoint" />
            <mxPoint x="40" as="targetPoint" />
          </mxGeometry>
        </mxCell>
        <mxCell id="0kSFPCfAwh8iFB105jdD-27" value="" style="endArrow=none;html=1;rounded=0;" edge="1" parent="0kSFPCfAwh8iFB105jdD-28">
          <mxGeometry width="50" height="50" relative="1" as="geometry">
            <mxPoint x="20" y="20" as="sourcePoint" />
            <mxPoint as="targetPoint" />
          </mxGeometry>
        </mxCell>
        <mxCell id="0kSFPCfAwh8iFB105jdD-31" value="PV" style="text;html=1;align=center;verticalAlign=middle;whiteSpace=wrap;rounded=0;" vertex="1" parent="0kSFPCfAwh8iFB105jdD-28">
          <mxGeometry x="-10" y="15" width="60" height="30" as="geometry" />
        </mxCell>
        <mxCell id="0kSFPCfAwh8iFB105jdD-32" value="Tiefpass" style="text;html=1;align=center;verticalAlign=middle;whiteSpace=wrap;rounded=0;" vertex="1" parent="1">
          <mxGeometry x="740" y="465" width="60" height="30" as="geometry" />
        </mxCell>
        <mxCell id="0kSFPCfAwh8iFB105jdD-35" value="Last" style="text;html=1;align=center;verticalAlign=middle;whiteSpace=wrap;rounded=0;" vertex="1" parent="1">
          <mxGeometry x="1050" y="465" width="60" height="30" as="geometry" />
        </mxCell>
      </root>
    </mxGraphModel>
  </diagram>
</mxfile>
